<?xml version="1.0" standalone="no"?>
<!DOCTYPE svg PUBLIC "-//W3C//DTD SVG 20010904//EN"
 "http://www.w3.org/TR/2001/REC-SVG-20010904/DTD/svg10.dtd">
<svg version="1.0" xmlns="http://www.w3.org/2000/svg"
 width="2084.000000pt" height="2084.000000pt" viewBox="0 0 2084.000000 2084.000000"
 preserveAspectRatio="xMidYMid meet">

<g transform="translate(0.000000,2084.000000) scale(0.100000,-0.100000)"
fill="#000000" stroke="none">
<path d="M10257 14250 c-238 -38 -449 -143 -611 -306 -134 -133 -242 -324
-282 -496 l-18 -76 -36 57 c-94 145 -240 215 -445 215 -88 0 -122 -5 -170 -22
-127 -47 -229 -146 -275 -270 -19 -48 -21 -73 -18 -162 3 -87 8 -115 30 -162
86 -186 327 -280 496 -194 59 31 115 88 141 146 23 51 27 136 8 187 -17 45
-71 119 -103 139 -82 55 -184 -29 -140 -115 9 -17 25 -35 35 -41 28 -14 74
-12 97 5 26 20 29 19 42 -10 16 -34 15 -88 -1 -128 -57 -135 -212 -182 -360
-109 -117 58 -179 160 -179 297 -1 105 29 174 111 256 50 50 81 71 125 88 154
57 349 27 472 -74 51 -42 97 -112 125 -191 27 -76 37 -240 19 -315 -60 -258
-295 -421 -588 -407 -153 7 -163 12 -764 330 -519 274 -578 298 -733 298 -413
-1 -691 -337 -609 -738 8 -42 28 -103 44 -134 l28 -57 -37 -5 c-119 -19 -896
-95 -1321 -131 -771 -63 -1774 -115 -2249 -115 -102 0 -209 -3 -238 -6 l-51
-7 -7 -96 c-51 -749 -253 -1303 -626 -1717 l-78 -86 74 -83 c381 -428 581
-976 630 -1722 l7 -103 97 0 c103 0 606 -15 913 -26 l186 -7 6 -51 c3 -28 8
-95 12 -148 l6 -97 72 -5 c39 -3 186 -13 326 -21 1019 -62 2198 -184 3233
-335 189 -28 346 -50 349 -50 3 0 8 -29 10 -64 15 -178 163 -322 346 -334 39
-2 72 -6 72 -9 0 -2 -9 -22 -21 -45 -24 -47 -29 -133 -10 -189 22 -68 110
-129 186 -129 68 0 141 44 171 102 19 36 18 112 -1 149 -34 64 -140 91 -207
52 -80 -48 -88 -152 -11 -153 29 0 47 33 33 59 -8 16 -6 23 12 35 34 24 66 19
99 -13 41 -41 38 -74 -10 -122 -33 -33 -45 -39 -82 -39 -114 0 -172 110 -116
220 25 50 70 85 131 101 23 6 295 72 606 146 635 153 678 159 778 114 95 -43
172 -155 172 -250 0 -113 -108 -221 -219 -221 -118 0 -208 99 -181 199 18 67
102 120 165 103 27 -8 30 -12 27 -44 -4 -40 24 -78 56 -78 63 0 85 84 35 133
-131 125 -353 30 -353 -152 0 -130 104 -221 254 -221 107 0 182 42 246 138 14
21 15 16 17 -68 2 -116 38 -203 102 -245 77 -52 178 -46 243 13 58 52 80 108
87 221 l6 93 33 -45 c47 -66 132 -107 224 -107 150 0 251 89 251 221 1 182
-208 274 -350 155 -25 -21 -33 -36 -33 -62 0 -39 29 -74 60 -74 28 0 73 47 67
68 -2 9 -6 23 -8 31 -6 20 48 32 91 21 20 -5 51 -26 70 -45 32 -33 35 -41 35
-96 0 -58 -2 -62 -41 -99 -86 -80 -204 -78 -290 5 -175 168 12 464 270 430 57
-7 1206 -278 1247 -293 36 -14 87 -60 105 -94 18 -34 20 -100 6 -139 -6 -14
-25 -38 -43 -53 -29 -25 -39 -28 -86 -24 -59 5 -95 30 -112 78 -22 66 56 134
112 97 18 -12 23 -22 20 -41 -10 -51 51 -78 80 -35 27 38 -5 104 -67 136 -43
23 -129 13 -162 -18 -62 -58 -71 -129 -25 -200 37 -59 87 -84 167 -84 83 0
136 35 171 112 21 46 25 65 20 114 -3 33 -14 75 -26 95 -12 19 -21 37 -21 38
0 2 33 5 73 8 176 11 319 140 347 313 5 32 14 61 20 65 14 9 800 120 1200 170
821 102 1619 181 2335 229 165 12 332 23 371 27 l71 5 7 127 c10 189 -13 168
199 176 280 11 811 25 920 26 l97 0 0 59 c0 84 27 342 50 479 91 534 292 976
589 1294 l70 75 -25 24 c-15 13 -60 65 -102 114 -338 401 -540 979 -578 1647
l-7 117 -71 5 c-39 3 -219 8 -401 11 -720 12 -1657 68 -2580 155 -241 23 -752
77 -807 86 l-36 5 25 56 c40 88 53 150 53 267 0 181 -42 295 -154 413 -119
126 -247 182 -436 190 -109 5 -120 4 -207 -25 -111 -38 -129 -47 -646 -320
-474 -250 -553 -282 -693 -282 -104 0 -212 24 -301 67 -79 38 -191 150 -227
227 -95 202 -50 483 99 614 102 90 265 131 407 101 120 -25 225 -108 276 -217
23 -49 27 -70 27 -147 0 -76 -4 -99 -26 -146 -53 -113 -162 -182 -289 -183
-48 0 -76 5 -106 21 -45 24 -100 81 -115 120 -12 33 -12 110 1 134 10 18 13
18 33 4 81 -56 189 51 132 132 -20 29 -75 46 -106 34 -33 -12 -97 -84 -120
-135 -26 -57 -25 -157 1 -212 65 -132 217 -199 368 -160 128 33 211 99 265
214 30 63 32 74 32 178 0 107 -1 112 -37 185 -87 177 -264 271 -476 255 -197
-15 -335 -102 -421 -265 l-39 -74 -11 66 c-27 155 -101 328 -192 449 -70 95
-213 225 -308 282 -93 56 -228 109 -333 132 -89 19 -292 26 -371 14z m373 -89
c303 -78 539 -264 669 -527 75 -153 105 -279 105 -449 0 -66 -6 -147 -13 -180
-94 -450 -439 -767 -888 -816 -144 -16 -274 0 -423 51 -151 51 -253 115 -371
230 -147 144 -228 284 -280 486 -19 73 -23 115 -23 229 0 159 19 254 76 391
98 229 301 434 528 530 74 31 209 69 280 78 74 9 266 -3 340 -23z m-3240
-1067 c116 -36 722 -349 820 -423 176 -132 199 -336 54 -478 -85 -83 -187
-103 -282 -54 -72 37 -122 113 -122 184 0 56 39 119 90 145 48 24 76 23 119
-5 l24 -16 -25 -13 c-58 -30 -54 -114 6 -143 25 -12 33 -11 62 2 25 13 36 26
44 58 29 105 -55 202 -175 202 -121 0 -215 -103 -214 -233 1 -106 51 -187 150
-240 58 -31 72 -35 144 -35 67 0 89 4 137 28 75 37 134 98 172 177 28 59 31
74 31 160 -1 72 -5 103 -19 128 -9 19 -15 36 -12 39 2 3 233 -116 513 -263
279 -148 532 -277 563 -287 72 -25 195 -33 244 -17 82 27 145 113 146 198 0
23 3 42 6 42 3 0 38 -15 77 -34 170 -82 382 -118 568 -98 160 18 323 70 429
137 22 14 41 25 43 25 2 0 4 -27 4 -59 0 -86 33 -146 103 -189 54 -33 57 -34
145 -29 55 3 114 14 150 26 33 12 287 142 565 290 278 147 506 267 508 265 2
-1 -4 -17 -14 -36 -12 -22 -19 -63 -22 -123 -3 -75 0 -100 18 -148 33 -88 93
-155 175 -197 60 -31 77 -35 144 -35 57 1 89 6 128 24 71 31 137 104 157 172
20 65 20 93 2 152 -19 63 -49 102 -103 134 -117 68 -266 4 -280 -121 -10 -82
52 -144 114 -114 15 7 34 26 41 41 18 38 0 85 -40 102 l-29 12 24 16 c50 33
107 26 156 -18 109 -98 56 -268 -99 -320 -195 -65 -390 151 -330 365 16 58 66
127 123 171 96 74 693 385 823 428 203 68 417 19 565 -128 108 -108 153 -221
152 -381 -2 -254 -146 -435 -388 -487 -280 -61 -548 165 -506 425 20 123 74
202 169 249 48 24 70 28 139 28 74 0 85 -3 125 -30 50 -35 98 -119 98 -173 0
-28 -3 -33 -17 -27 -50 19 -79 17 -111 -10 -27 -22 -32 -34 -32 -68 1 -88 83
-127 150 -71 51 44 74 99 74 179 0 82 -30 152 -88 203 -67 59 -92 67 -201 67
-93 0 -105 -2 -166 -32 -245 -121 -288 -473 -84 -678 189 -189 517 -190 730
-3 l47 41 156 -17 c1243 -138 2712 -236 3528 -236 l192 0 7 -92 c34 -475 126
-848 294 -1193 89 -182 183 -330 298 -467 l79 -94 -58 -64 c-32 -36 -87 -104
-121 -152 -287 -405 -445 -895 -492 -1529 l-7 -87 -216 -6 c-761 -21 -1169
-40 -1707 -76 -1952 -133 -3974 -418 -5414 -764 l-216 -51 -115 27 c-1962 470
-4614 795 -7015 858 -203 5 -382 10 -397 10 -32 0 -31 -4 -48 205 -52 629
-263 1177 -606 1571 l-53 61 60 69 c284 328 476 762 564 1279 20 122 45 338
45 400 0 102 -15 95 209 95 776 0 2156 90 3339 216 l343 37 37 -35 c86 -83
199 -132 334 -144 205 -18 398 87 485 263 31 63 37 87 41 157 10 189 -62 327
-206 398 -62 31 -74 33 -167 33 -112 0 -142 -10 -208 -74 -53 -50 -79 -104
-85 -178 -6 -75 14 -136 57 -177 l28 -27 22 27 c21 27 21 27 2 48 -82 88 -33
248 91 300 47 20 120 20 182 2 143 -43 224 -174 214 -345 -6 -97 -35 -158
-108 -232 -179 -180 -487 -165 -665 33 -146 162 -164 446 -40 635 132 200 392
291 625 217z m4147 -333 c100 -156 315 -269 513 -271 48 -1 53 -2 38 -14 -10
-7 -172 -94 -360 -194 -350 -184 -417 -212 -515 -212 -89 0 -157 65 -157 148
0 120 112 190 196 123 l23 -19 -28 -22 c-34 -27 -38 -89 -7 -120 49 -49 130
-9 130 64 -1 87 -62 166 -146 187 l-44 11 40 45 c90 102 174 255 211 386 l23
78 24 -68 c14 -37 40 -92 59 -122z m-2051 -132 c27 -44 70 -104 96 -134 27
-29 48 -55 48 -58 0 -3 -11 -8 -25 -11 -35 -9 -96 -65 -111 -103 -8 -18 -14
-53 -14 -78 0 -55 25 -85 72 -85 72 0 105 86 52 135 -22 21 -24 27 -14 40 7 8
29 20 50 26 104 31 192 -116 130 -219 -35 -57 -74 -74 -160 -69 -41 3 -99 14
-128 25 -67 26 -731 375 -732 385 0 4 24 7 53 7 214 1 448 141 537 323 l33 68
32 -86 c18 -47 54 -121 81 -166z m-5094 -4494 c1136 -67 2254 -179 3343 -336
231 -34 440 -63 464 -66 l45 -6 -50 -22 c-67 -30 -110 -68 -146 -132 -16 -29
-32 -53 -34 -53 -3 0 -177 25 -387 55 -1087 156 -2320 281 -3314 336 l-222 13
-5 40 c-3 23 -8 74 -11 114 l-5 72 34 0 c19 0 148 -7 288 -15z m12376 -62 c-3
-43 -7 -94 -7 -113 l-1 -35 -277 -18 c-735 -48 -1684 -141 -2523 -247 -334
-43 -1084 -148 -1112 -156 -12 -4 -22 7 -36 39 -28 63 -87 124 -150 156 l-54
27 319 47 c1169 172 2270 285 3573 366 74 4 167 9 205 10 l71 1 -8 -77z
m-8016 -434 c381 -66 1075 -202 1086 -213 1 -2 -19 -6 -45 -9 -27 -3 -325 -72
-663 -153 -569 -136 -622 -147 -715 -148 -117 -1 -165 16 -240 85 -118 109
-134 274 -37 381 118 131 340 94 383 -64 29 -109 -85 -219 -196 -188 -42 12
-42 12 -31 41 8 24 8 35 -4 57 -30 53 -130 32 -130 -27 0 -63 113 -141 204
-141 200 0 301 244 160 386 -22 22 -29 34 -20 34 8 0 120 -18 248 -41z m3571
9 c-88 -93 -94 -217 -15 -308 90 -106 251 -107 342 -4 50 58 32 124 -35 124
-46 0 -69 -29 -62 -80 5 -40 5 -40 -36 -51 -140 -37 -252 131 -167 250 11 17
45 42 75 57 111 54 244 15 310 -90 26 -44 30 -58 30 -125 0 -130 -61 -223
-184 -279 -62 -29 -161 -39 -236 -25 -27 6 -327 76 -666 157 -339 80 -629 146
-645 147 l-29 1 25 9 c64 23 1230 246 1299 248 l25 1 -31 -32z m-2107 -308
l142 -33 -34 -47 c-19 -26 -50 -81 -69 -121 l-34 -74 -1 41 c0 85 -55 186
-132 244 -24 18 -36 30 -28 28 8 -3 79 -20 156 -38z m520 -11 c-60 -54 -101
-128 -112 -197 l-7 -42 -38 77 c-21 43 -49 92 -63 108 l-24 30 146 37 c81 20
148 37 150 37 2 1 -21 -22 -52 -50z m-266 -114 c66 -97 100 -202 100 -316 0
-149 -46 -228 -137 -236 -43 -5 -53 -2 -82 23 -112 94 -103 324 19 513 22 34
46 61 54 61 8 0 29 -20 46 -45z"/>
<path d="M10220 14085 c-187 -42 -325 -118 -461 -254 -103 -103 -162 -191
-209 -313 -81 -208 -81 -458 0 -666 86 -222 272 -414 492 -510 217 -93 501
-95 716 -4 276 118 484 369 543 657 65 312 -35 635 -263 851 -120 114 -235
180 -390 225 -97 28 -332 36 -428 14z m394 -69 c155 -43 255 -99 373 -210 178
-168 273 -383 273 -621 0 -348 -227 -677 -551 -799 -204 -76 -429 -73 -631 8
-201 82 -383 263 -464 464 -50 123 -59 178 -58 337 0 136 3 158 28 235 104
316 329 520 656 596 74 18 296 11 374 -10z"/>
<path d="M10379 13714 c-52 -120 -72 -229 -76 -419 -4 -155 -2 -194 16 -282
12 -56 24 -110 27 -120 5 -17 4 -17 -8 1 -154 224 -256 354 -386 491 -85 90
-93 88 -72 -19 38 -196 180 -406 355 -525 28 -19 43 -31 33 -28 -62 21 -312
78 -403 91 -174 26 -185 27 -185 17 0 -14 118 -100 182 -132 94 -47 200 -72
314 -73 l101 0 -95 -48 c-52 -26 -98 -51 -101 -54 -3 -4 30 -4 74 -2 88 5 139
26 211 84 l41 33 24 -25 c13 -13 54 -40 92 -59 58 -29 80 -35 135 -35 41 0 62
4 56 9 -5 5 -48 29 -96 53 l-87 43 102 1 c174 2 342 64 451 166 l51 48 -40 -5
c-176 -21 -452 -77 -553 -112 -10 -3 15 17 53 45 186 133 321 354 340 555 l6
62 -76 -80 c-101 -107 -246 -286 -335 -415 -40 -58 -70 -94 -66 -80 4 14 14
54 23 90 26 97 25 434 0 545 -19 80 -62 202 -78 219 -5 5 -17 -12 -30 -40z
m40 -424 c0 -69 -2 -177 -6 -240 -8 -113 -8 -114 -14 -50 -9 92 -10 399 -2
500 l8 85 6 -85 c4 -47 7 -141 8 -210z m-389 -80 c35 -47 108 -141 163 -210
l98 -125 -94 97 c-88 91 -192 229 -232 308 -22 45 -13 34 65 -70z m805 53
c-54 -94 -141 -207 -228 -297 -96 -98 -93 -92 24 54 41 52 108 139 148 193 41
53 76 97 78 97 3 0 -7 -21 -22 -47z m-954 -409 c30 -9 119 -32 199 -50 125
-30 136 -34 78 -29 -79 6 -234 45 -298 73 -56 25 -50 27 21 6z m1069 -5 c-66
-30 -220 -68 -298 -74 -58 -5 -47 -1 78 29 80 18 168 41 195 49 69 21 79 20
25 -4z m-670 -175 c0 -6 -65 -34 -77 -33 -4 0 10 9 32 19 48 22 45 21 45 14z
m280 -9 c14 -8 21 -14 15 -14 -5 0 -21 6 -35 14 -14 8 -20 14 -15 14 6 0 21
-6 35 -14z"/>
<path d="M9417 11780 c-88 -22 -153 -80 -199 -176 -88 -186 -41 -396 104 -468
113 -57 267 -23 333 72 25 36 30 55 33 116 3 59 0 81 -17 114 -64 125 -269
154 -332 47 -12 -19 -23 -35 -26 -35 -10 0 7 123 24 175 29 90 76 135 143 135
55 0 70 -15 70 -70 0 -56 18 -80 60 -80 38 0 60 24 60 66 0 39 -25 69 -75 90
-45 18 -131 25 -178 14z m75 -271 c81 -44 81 -324 0 -368 -60 -32 -128 2 -153
77 -16 48 -16 167 0 214 24 70 97 107 153 77z"/>
<path d="M10343 11780 c-140 -29 -219 -164 -147 -249 21 -25 33 -31 65 -31 75
0 112 68 68 124 -25 32 -60 36 -52 5 5 -17 2 -20 -13 -17 -23 4 -31 56 -14 88
15 28 82 60 125 60 54 0 90 -23 109 -70 19 -48 20 -70 5 -121 -15 -48 -54 -85
-170 -162 -112 -75 -139 -116 -139 -212 0 -60 11 -85 37 -85 18 0 16 27 -2 34
-18 6 -20 32 -4 42 24 14 69 4 162 -35 77 -33 108 -41 156 -41 53 0 65 4 94
30 41 35 63 101 52 156 -10 54 -64 106 -106 102 -18 -2 -35 -9 -37 -17 -4 -11
2 -13 25 -8 62 12 97 -55 57 -111 -22 -32 -63 -28 -157 14 -105 48 -154 54
-203 25 l-37 -22 15 23 c23 35 85 65 192 93 115 30 164 53 199 95 51 60 43
173 -16 228 -55 52 -177 80 -264 62z"/>
<path d="M11388 11777 c-116 -33 -201 -140 -228 -287 -28 -154 30 -298 142
-354 113 -56 267 -23 332 72 51 72 48 199 -6 268 -32 39 -113 74 -176 74 -65
0 -103 -19 -138 -68 l-26 -37 7 70 c16 159 74 245 165 245 54 0 70 -15 70 -66
0 -64 13 -84 55 -84 94 0 86 115 -11 156 -49 21 -133 25 -186 11z m84 -268
c81 -43 81 -325 0 -368 -34 -18 -86 -13 -111 10 -48 45 -70 151 -51 245 21 98
94 149 162 113z"/>
<path d="M4310 11430 l0 -30 2140 0 2140 0 0 30 0 30 -2140 0 -2140 0 0 -30z"/>
<path d="M12260 11430 l0 -30 2140 0 2140 0 0 30 0 30 -2140 0 -2140 0 0 -30z"/>
<path d="M4334 10726 c-10 -25 3 -33 63 -41 43 -5 63 -14 85 -35 l28 -28 0
-607 0 -606 -24 -24 c-13 -13 -41 -26 -62 -30 -74 -12 -85 -16 -91 -31 -3 -9
-1 -19 5 -23 15 -9 658 -8 668 1 3 4 4 14 1 22 -6 15 -18 19 -91 31 -21 4 -49
17 -62 30 l-24 24 0 311 0 310 275 0 275 0 0 -305 0 -305 -27 -30 c-20 -21
-40 -32 -68 -36 -75 -10 -85 -14 -85 -33 0 -10 6 -21 13 -23 6 -2 156 -4 332
-4 305 1 320 2 323 20 5 23 -14 36 -51 36 -50 0 -97 27 -112 64 -21 51 -22
1159 -1 1210 15 35 44 52 116 64 36 6 46 12 48 30 l3 22 -333 -2 c-323 -3
-333 -4 -333 -22 0 -17 11 -22 63 -31 110 -20 107 -9 110 -330 l3 -275 -276 0
-275 0 0 269 c0 268 0 270 23 297 18 20 39 30 88 38 53 10 64 15 64 32 0 18
-10 19 -333 22 -285 2 -333 0 -338 -12z"/>
<path d="M6372 10718 c2 -18 14 -24 68 -34 115 -24 105 39 105 -664 l0 -610
-26 -25 c-15 -15 -41 -28 -65 -31 -75 -10 -84 -14 -84 -34 0 -11 3 -20 8 -21
4 0 273 -1 597 -2 l590 -2 47 235 c57 285 60 315 34 315 -14 0 -25 -18 -45
-77 -38 -107 -85 -181 -164 -260 -107 -107 -238 -160 -396 -161 -85 -1 -123
13 -155 56 -20 27 -21 42 -24 328 l-3 299 44 0 c70 0 140 -26 184 -68 49 -48
73 -97 85 -181 14 -90 15 -91 38 -91 20 0 20 5 20 349 0 232 -4 352 -10 356
-20 12 -37 -15 -43 -67 -18 -147 -127 -248 -269 -248 l-48 0 0 306 0 307 133
-6 c273 -10 399 -92 524 -340 41 -82 64 -103 71 -66 1 8 -24 113 -56 234 l-58
220 -553 3 -552 2 3 -22z"/>
<path d="M8135 10730 c-10 -16 14 -40 39 -40 47 0 102 -24 139 -60 l38 -39 -3
-533 -3 -533 -24 -53 c-30 -67 -68 -98 -142 -119 -45 -12 -59 -21 -59 -35 0
-10 6 -19 13 -19 37 -4 474 -4 485 -1 24 8 13 41 -15 48 -100 22 -148 60 -179
141 -17 44 -19 91 -22 538 -2 269 -1 487 3 484 3 -3 117 -276 254 -605 198
-478 252 -599 266 -599 15 0 67 121 265 614 136 338 252 621 258 630 18 25 11
-1116 -6 -1147 -16 -27 -68 -52 -110 -52 -39 0 -70 -23 -55 -42 10 -11 70 -13
335 -12 178 1 326 2 331 3 4 0 7 10 7 21 0 14 -9 20 -37 25 -73 11 -117 29
-130 55 -10 19 -13 162 -13 622 l0 597 23 27 c18 20 39 30 88 38 53 10 64 15
64 32 0 18 -10 19 -236 22 l-237 2 -54 -132 c-30 -73 -122 -298 -204 -500 -82
-202 -151 -368 -154 -368 -3 0 -99 225 -214 500 l-210 500 -247 0 c-161 0
-250 -4 -254 -10z"/>
<path d="M10444 10726 c-10 -25 3 -33 61 -41 36 -4 65 -15 83 -30 l27 -23 3
-606 2 -605 -27 -31 c-20 -21 -40 -32 -68 -36 -76 -10 -85 -14 -85 -34 0 -11
3 -21 8 -21 4 -1 152 -2 330 -3 265 -1 325 1 335 12 15 19 -16 42 -55 42 -16
0 -44 7 -64 15 -59 24 -64 50 -64 328 l0 244 178 6 c194 6 267 20 365 69 79
39 137 95 172 165 27 52 29 68 30 158 0 91 -3 105 -30 158 -51 101 -162 182
-310 224 -51 14 -122 17 -473 21 -362 3 -413 2 -418 -12z m718 -52 c80 -23
149 -85 179 -162 19 -46 23 -77 23 -167 1 -179 -40 -267 -150 -321 -47 -23
-71 -27 -169 -32 l-115 -5 0 352 0 351 87 0 c50 0 111 -7 145 -16z"/>
<path d="M12164 10726 c-10 -25 3 -33 63 -41 43 -5 63 -14 85 -35 l28 -28 0
-597 c0 -657 1 -642 -61 -664 -18 -6 -44 -11 -60 -11 -40 0 -59 -10 -59 -31 0
-10 3 -20 8 -20 4 -1 152 -2 330 -3 257 -1 326 1 334 12 17 20 -3 34 -62 43
-69 11 -97 31 -110 79 -7 26 -10 229 -8 616 l3 576 32 28 c21 19 47 31 80 35
67 9 75 13 71 32 -3 17 -28 18 -336 21 -285 2 -333 0 -338 -12z"/>
<path d="M13352 10718 c2 -17 13 -24 58 -33 76 -15 98 -29 110 -73 8 -25 10
-221 8 -620 l-3 -584 -28 -23 c-15 -13 -44 -27 -65 -30 -80 -13 -83 -15 -80
-38 l3 -22 320 -1 c176 0 326 2 333 4 6 2 12 13 12 23 0 19 -10 23 -84 33 -24
3 -50 16 -65 31 l-26 25 -3 286 -3 286 53 -7 c74 -10 150 -46 184 -89 16 -20
88 -159 159 -308 l131 -273 234 -7 c129 -3 239 -3 244 2 17 17 -3 39 -41 45
-118 20 -140 44 -264 284 -52 101 -111 203 -132 227 -67 77 -173 124 -279 124
-66 0 -60 16 8 25 135 17 280 75 354 141 63 57 85 113 85 219 -1 78 -4 97 -28
143 -38 72 -96 126 -181 167 -123 59 -176 65 -621 65 l-396 0 3 -22z m727 -44
c72 -21 134 -79 162 -152 32 -82 32 -243 0 -324 -46 -118 -153 -178 -319 -178
l-82 0 0 335 0 335 93 0 c56 0 115 -6 146 -16z"/>
<path d="M15212 10718 c2 -18 14 -24 68 -34 115 -24 105 39 105 -664 l0 -610
-26 -25 c-15 -15 -41 -28 -65 -31 -75 -10 -84 -14 -84 -34 0 -11 3 -20 8 -21
4 0 273 -1 597 -2 l590 -2 47 235 c57 286 60 315 34 315 -14 0 -25 -18 -45
-77 -92 -259 -298 -417 -551 -421 -95 -1 -131 11 -164 56 -20 27 -21 42 -24
328 l-3 299 44 0 c70 0 140 -26 184 -68 49 -48 73 -97 85 -181 14 -90 15 -91
38 -91 20 0 20 5 20 349 0 232 -4 352 -10 356 -20 12 -37 -15 -43 -67 -18
-147 -127 -248 -269 -248 l-48 0 0 306 0 307 133 -6 c273 -10 399 -92 524
-340 41 -82 64 -103 71 -66 1 8 -24 113 -56 234 l-58 220 -553 3 -552 2 3 -22z"/>
<path d="M17420 10293 c-32 -60 -123 -151 -178 -179 l-43 -21 43 -26 c68 -40
123 -92 166 -157 l40 -60 31 49 c36 55 118 136 174 170 l37 23 -57 37 c-66 43
-118 98 -158 165 -15 25 -28 46 -28 46 -1 0 -13 -21 -27 -47z"/>
<path d="M3377 10301 c-39 -67 -100 -131 -156 -168 -33 -21 -61 -40 -61 -43 0
-3 18 -15 41 -28 61 -35 118 -90 160 -155 l38 -58 34 53 c40 62 104 125 165
162 l43 27 -58 38 c-65 42 -120 99 -155 160 -13 23 -25 41 -28 41 -3 0 -13
-13 -23 -29z"/>
<path d="M4310 8745 l0 -35 6115 0 6115 0 0 35 0 35 -6115 0 -6115 0 0 -35z"/>
<path d="M10392 8155 c-17 -24 -49 -57 -72 -74 l-41 -29 46 -33 c25 -18 45
-35 45 -38 0 -3 13 -21 28 -39 l27 -33 32 45 c18 25 50 57 73 72 36 24 39 29
23 37 -28 15 -73 58 -103 99 l-27 37 -31 -44z"/>
<path d="M9750 8065 l0 -35 180 0 180 0 0 35 0 35 -180 0 -180 0 0 -35z"/>
<path d="M10740 8065 l0 -35 180 0 180 0 0 35 0 35 -180 0 -180 0 0 -35z"/>
</g>
</svg>
